/* XPM */
static char *result[] = {
/* columns rows colors chars-per-pixel */
"16 16 80 1 ",
"  c #040506",
". c gray3",
"X c #090909",
"o c #1D1C17",
"O c #240A04",
"+ c #310D04",
"@ c #301F15",
"# c #2A261E",
"$ c #2C2920",
"% c #2D2920",
"& c #2E2920",
"* c #383227",
"= c #363328",
"- c #3B3529",
"; c #411F12",
": c #6A1A03",
"> c #452214",
", c #752C13",
"< c #413A2D",
"1 c #553321",
"2 c #563321",
"3 c #593623",
"4 c #4D4535",
"5 c #564D3B",
"6 c #574E3C",
"7 c #59503D",
"8 c #6B543D",
"9 c #5B5441",
"0 c #695F49",
"q c #6B5F48",
"w c #6D624B",
"e c #766C52",
"r c #786C52",
"t c #802004",
"y c #8B2102",
"u c #952403",
"i c #943010",
"p c #963413",
"a c #CC2B00",
"s c #CF2F00",
"d c #D12E00",
"f c #CD3C0F",
"g c #D03B0D",
"h c #E83400",
"j c #E4400D",
"k c #E74F1B",
"l c #FB4810",
"z c #D06638",
"x c #FC7239",
"c c #84684B",
"v c #827458",
"b c #80765A",
"n c #8B7C5E",
"m c #8C7D5F",
"M c #937858",
"N c #AC7E58",
"B c #CF8456",
"V c #FF8E56",
"C c #FA9057",
"Z c #CFAD7F",
"A c #FEAB72",
"S c #BBA980",
"D c #BBAA81",
"F c #CCAE80",
"G c #CFB98B",
"H c #CEB98C",
"J c #CFBA8C",
"K c #CFBB8D",
"L c #CFBD8E",
"P c #D0BB8D",
"I c #D1BC8D",
"U c #D1BE8F",
"Y c #D8C191",
"T c #FFC990",
"R c #E7D09D",
"E c #EBD39F",
"W c #FED59C",
"Q c #FFE7AD",
"! c #FFE8AE",
"~ c None",
/* pixels */
"~~~~~~-4<#~~~~~~",
"~~~~~*nJPm*~~~~~",
"~~~~rUE!!EUr~~~~",
"~~~.wLIGGILw.~~~",
"~~~~%567765%~~~~",
"~~~&vHKSSKHv&~~~",
"~~~qYQWNNWQYq~~~",
"~~~$bRAkkARb$~~~",
"~~~O;MZzzZM;O~~~",
"~~+ysi2112isy+~~",
"~~,jhdfBBfdhj,~~",
"~XcCpuxTTxupCcX~",
"~~eF8tlVVlt8Fe~~",
"~~~=o:agga:o=~~~",
"~~~~ @3>>3@ ~~~~",
"~~~~~0D99D0~~~~~"
};
