/* XPM */
static char *result[] = {
/* columns rows colors chars-per-pixel */
"16 16 71 1 ",
"  c gray2",
". c #070707",
"X c #090807",
"o c #070708",
"O c #070808",
"+ c gray3",
"@ c #090808",
"# c #090908",
"$ c #0A0808",
"% c #0A0908",
"& c #0A0A09",
"* c #0C0909",
"= c #441306",
"- c #441406",
"; c #451406",
": c #45160A",
"> c #591805",
", c #7F1F03",
"< c #7F1F04",
"1 c #7F2004",
"2 c #443E30",
"3 c #453E30",
"4 c #453F31",
"5 c #473F30",
"6 c #463F31",
"7 c #59503D",
"8 c #802004",
"9 c #812004",
"0 c #BB2C03",
"q c #BC2C03",
"w c #80492E",
"e c #81492E",
"r c #824A2E",
"t c #BD562C",
"y c #817357",
"u c #817358",
"i c #807458",
"p c #817458",
"a c #827458",
"s c #827558",
"d c #837558",
"f c #827559",
"g c #82765A",
"h c #83775B",
"j c #847759",
"k c #84765B",
"l c #86775B",
"z c #897B5F",
"x c #BD8056",
"c c #BE8057",
"v c #BDA97F",
"b c #BEA97F",
"n c #F9B67E",
"m c #BEAA80",
"M c #BFAA80",
"N c #BFAB80",
"B c #C1AC82",
"V c #C1AD83",
"C c #C1AE84",
"Z c #C3AF85",
"A c #F7DFA7",
"S c #F2E2AA",
"D c #F7E0A8",
"F c #F2E4AD",
"G c #F8E0A8",
"H c #F8E1A9",
"J c #F9E1A9",
"K c #FAE1A8",
"L c #FBE1A8",
"P c #FAE1A9",
"I c None",
/* pixels */
"IIIIII.#X IIIIII",
"IIIII+4fa3.IIIII",
"IIIIo3mKPm6+IIII",
"IIII3ycnLHv3IIII",
"III&aa:wafa3+III",
"IIIIdmauaaa6IIII",
"IIIIabMGAVBu*III",
"III&psjJZzlr>III",
"IIIIabNDCke08III",
"IIII7aadp2-<>III",
"IIIIO@;1;--$IIII",
"IIIII=,19q8IIIII",
"IIIII,15xt>IIIII",
"IIII%;-3a5$IIIII",
"IIII7p3@4i3IIIII",
"IIIIgFh@gSpIIIII"
};
