/* XPM */
static char *result[] = {
/* columns rows colors chars-per-pixel */
"16 16 121 2 ",
"   c #070706",
".  c #080707",
"X  c #060808",
"o  c #070909",
"O  c #090908",
"+  c #1E0B06",
"@  c #1F0D07",
"#  c #1C0C08",
"$  c #1A1714",
"%  c #1A1814",
"&  c #1B1814",
"*  c #1C1915",
"=  c #1D1A15",
"-  c #1D1A16",
";  c #1D1B16",
":  c #1D1B17",
">  c #1F1C17",
",  c #1F1D17",
"<  c #1F1D18",
"1  c #200D08",
"2  c #2F1007",
"3  c #311107",
"4  c #331006",
"5  c #321107",
"6  c #331107",
"7  c #381206",
"8  c #201C17",
"9  c #201D17",
"0  c #2D1D14",
"q  c #301E15",
"w  c #3B2418",
"e  c #2C2820",
"r  c #2D2820",
"t  c #342E24",
"y  c #342F24",
"u  c #383328",
"i  c #393328",
"p  c #393428",
"a  c #3C362A",
"s  c #551705",
"d  c #571806",
"f  c #5C1905",
"g  c #5E1905",
"h  c #681903",
"j  c #6B1C05",
"k  c #6D1C05",
"l  c #6F1D05",
"z  c #751C03",
"x  c #442315",
"c  c #472314",
"v  c #692612",
"b  c #483225",
"n  c #5C533F",
"m  c #5D5643",
"M  c #5F5642",
"N  c #625743",
"B  c #6B614A",
"V  c #6D624A",
"C  c #6C624B",
"Z  c #6D624B",
"A  c #6D634B",
"S  c #6E624B",
"D  c #6E634C",
"F  c #6F634C",
"G  c #6F644C",
"H  c #6F644D",
"J  c #766A50",
"K  c #786B52",
"L  c #7F7256",
"P  c #801E02",
"I  c #811F02",
"U  c #802004",
"Y  c #952403",
"T  c #972403",
"R  c #812E11",
"E  c #A42501",
"W  c #BD2C02",
"Q  c #D13001",
"!  c #A7603B",
"~  c #80654A",
"^  c #83674A",
"/  c #807257",
"(  c #817357",
")  c #817458",
"_  c #827458",
"`  c #837559",
"'  c #82765A",
"]  c #847659",
"[  c #85775A",
"{  c #86785B",
"}  c #887A5E",
"|  c #977857",
" . c #998968",
".. c #998B6A",
"X. c #9C8C6B",
"o. c #A79570",
"O. c #A99873",
"+. c #AD9A74",
"@. c #B19E78",
"#. c #BCA87E",
"$. c #BCA87F",
"%. c #E69663",
"&. c #BFAA80",
"*. c #CFBE8F",
"=. c #D2BD8E",
"-. c #CFBF90",
";. c #D4C292",
":. c #D5C595",
">. c #E3CD9A",
",. c #E4CC9A",
"<. c #E5CE9B",
"1. c #E7D09C",
"2. c #E9D09C",
"3. c #E9D19D",
"4. c #E8D19E",
"5. c #FCD39B",
"6. c #EDD5A0",
"7. c #FBE3AA",
"8. c #FBE3AB",
"9. c #FDE4AB",
"0. c None",
/* pixels */
"0.0.0.0.0.0.  O . 0.0.0.0.0.0.0.",
"0.0.0.0.0.= Z { A ; 0.0.0.0.0.0.",
"0.0.0.0.* _ 3.9.2.( & 0.0.0.0.0.",
"0.0.0.- / 1.8.5.%.| B > 0.0.0.0.",
"0.0.0., V [ ' ^ v b O.a 0.0.0.0.",
"0.0.0.9 S ] _ ) L  .&.p 0.0.0.0.",
"0.0.0.u $.@.>.7.,.+.#.p 0.0.0.0.",
"0.0.0.8 F } X.6.=.n o.a 0.0.0.0.",
"0.0.2 z R ~ ..4.<.+.#.i 0.0.0.0.",
"0.0.7 W I 0 C ] _ ` J 0.0.0.0.0.",
"0.0.6 g 4 s 3 k l # X 0.0.0.0.0.",
"0.0.0.@ j U Y Q T h q M t 0.0.0.",
"0.0.0.w ! x P W f E c m t 0.0.0.",
"0.0.0.y N : + d 5 d 1 o 0.0.0.0.",
"0.0.0.0.< D H $ % G K 0.0.0.0.0.",
"0.0.0.0.0.*.;.e r :.-.0.0.0.0.0."
};
