/* XPM */
static char *result[] = {
/* columns rows colors chars-per-pixel */
"16 16 76 1 ",
"  c gray3",
". c #080908",
"X c #0A0908",
"o c #0B0B09",
"O c #0C0A09",
"+ c #431306",
"@ c #441406",
"# c #451406",
"$ c #441507",
"% c #451507",
"& c #46160A",
"* c #581704",
"= c #581805",
"- c #7E1E03",
"; c #7E1F03",
": c #7F2004",
"> c #443D2F",
", c #443E30",
"< c #453E30",
"1 c #463F30",
"2 c #484133",
"3 c #494233",
"4 c #59503D",
"5 c #59513E",
"6 c #5A503E",
"7 c #5B513E",
"8 c #7F4A2E",
"9 c #605642",
"0 c #615743",
"q c #801F03",
"w c #802003",
"e c #802004",
"r c #802005",
"t c #BA2B01",
"y c #BC2B01",
"u c #BC2C02",
"i c #BC2C03",
"p c #BE2D03",
"a c #F53700",
"s c #814A2E",
"d c #804A2F",
"f c #814A2F",
"g c #814B2F",
"h c #824A2E",
"j c #824B2E",
"k c #BB562C",
"l c #F6612A",
"z c #F6622B",
"x c #807257",
"c c #817357",
"v c #807458",
"b c #817458",
"n c #807459",
"m c #827458",
"M c #827559",
"N c #837559",
"B c #837659",
"V c #8F7F61",
"C c #BD8057",
"Z c #8F8061",
"A c #908162",
"S c #F1B47D",
"D c #F3B57D",
"F c #F3B57E",
"G c #F7B67E",
"H c #F7B67F",
"J c #FAB77F",
"K c #FCB77E",
"L c #BEA980",
"P c #BEAA80",
"I c #BFAA80",
"U c #F6DEA7",
"Y c #F9E0A8",
"T c #FBE0A8",
"R c #FCE1A9",
"E c None",
/* pixels */
"EEEEEo9AA9oEEEEE",
"EEEE4MPUUPM4EEEE",
"EEEEbSCIICSbEEEE",
"EEEE<d&mm&d<EEEE",
"EEEX1cmPPmc1XEEE",
"EEE6IPPTTPPI6EEE",
"EEE7LNBRRBNL7EEE",
"EEEO<cPYYPc<OEEE",
"EEE*:hmbmmh:*EEE",
"EE=uaur+@euau=EE",
"EEszpilk:typzsEE",
"EEmDssKJjwqgFmEE",
"EE5v,8GHs-;<n5EE",
"EEEE $gf%#@.EEEE",
"EEEEE<x>>x<EEEEE",
"EEEEE0V23Z0EEEEE"
};
