/* XPM */
static char *d033824717b54cfba4b2ee685f1e3804SWVWBHzirUayPRt9[] = {
/* columns rows colors chars-per-pixel */
"64 64 185 2 ",
"   c None",
".  c #0E1210",
"X  c #141314",
"o  c #1A151D",
"O  c #1C1C1D",
"+  c #20201F",
"@  c #190E23",
"#  c #1A1521",
"$  c #1D1D22",
"%  c #24122F",
"&  c #271A2F",
"*  c #291E2F",
"=  c #211827",
"-  c #291B31",
";  c #1E2023",
":  c #232224",
">  c #252229",
",  c #2A232E",
"<  c #2D2D2E",
"1  c #26282B",
"2  c #302F2F",
"3  c #2F302F",
"4  c #30302F",
"5  c #2E2533",
"6  c #2D2A30",
"7  c #312D32",
"8  c #312736",
"9  c #333333",
"0  c #3A3735",
"q  c #383837",
"w  c #39373B",
"e  c #3C3C3B",
"r  c #373737",
"t  c #443F3E",
"y  c #503B34",
"u  c #633D30",
"i  c #6A3F32",
"p  c #43413F",
"a  c #49423F",
"s  c #6F4A3E",
"d  c #3F3C43",
"f  c #413F42",
"g  c #454545",
"h  c #4B4443",
"j  c #4C4C4B",
"k  c #484748",
"l  c #51504F",
"z  c #555554",
"x  c #595555",
"c  c #585857",
"v  c #595959",
"b  c #785A4D",
"n  c #615D5B",
"m  c #715E56",
"M  c #65615D",
"N  c #69635E",
"B  c #79675C",
"V  c #656464",
"C  c #6C6C6B",
"Z  c #686867",
"A  c #766C66",
"S  c #7F6D64",
"D  c #726E6D",
"F  c #7C726C",
"G  c #737373",
"H  c gray49",
"J  c #8D4A36",
"K  c #9B4B32",
"L  c #815C4D",
"P  c #896F5E",
"I  c #9C6952",
"U  c #89705F",
"Y  c #9B715B",
"T  c #826E62",
"R  c #8E776A",
"E  c #8E796C",
"W  c #867266",
"Q  c #937B6B",
"!  c #9A7E6D",
"~  c #897F7C",
"^  c #907E73",
"/  c #968175",
"(  c #A3806A",
")  c #AB8269",
"_  c #B48569",
"`  c #BE8B6A",
"'  c #B88667",
"]  c #A38471",
"[  c #A88977",
"{  c #BA8C70",
"}  c #BE987F",
"|  c #C28A67",
" . c #C18C6A",
".. c #C98C67",
"X. c #CA936E",
"o. c #CD9C7B",
"O. c #C69474",
"+. c #D99D73",
"@. c #D39D7A",
"#. c #D59B73",
"$. c #DCA177",
"%. c #E3A77C",
"&. c #EDAB7B",
"*. c #E2A376",
"=. c #F3AF7D",
"-. c #F3B07D",
";. c #8C8B8B",
":. c #888888",
">. c #928781",
",. c #9D8C82",
"<. c #9D908A",
"1. c #8E8F90",
"2. c #9B9999",
"3. c #949597",
"4. c #A08F86",
"5. c #AA9083",
"6. c #B49684",
"7. c #A59994",
"8. c #B49D93",
"9. c #A9A9AD",
"0. c #A7A4A6",
"q. c #BEABA3",
"w. c #BBAEAB",
"e. c #B7AAA7",
"r. c #BCB0AD",
"t. c #BBB9BA",
"y. c #BAB5B6",
"u. c #C69C82",
"i. c #C7A48F",
"p. c #D7A688",
"a. c #C6A393",
"s. c #CFAA94",
"d. c #C1A79B",
"f. c #DEB297",
"g. c #EBAD80",
"h. c #EFB68D",
"j. c #F5BA8F",
"k. c #F3B485",
"l. c #E4B698",
"z. c #F6BF99",
"x. c #C0ACA3",
"c. c #C1AFA9",
"v. c #C4B1AA",
"b. c #D5BAAC",
"n. c #DBBDAF",
"m. c #C4BABB",
"M. c #C9BFBE",
"N. c #D4BDB3",
"B. c #DCBEB0",
"V. c #E4BBA4",
"C. c #EABEA3",
"Z. c #F5C09C",
"A. c #D6C2BB",
"S. c #ECC3AA",
"D. c #F7C7A8",
"F. c #F8C7A7",
"G. c #E5C4B4",
"H. c #E4C7BB",
"J. c #EECCBB",
"K. c #E7C7B9",
"L. c #F4CEBA",
"P. c #F5CBB2",
"I. c #F6D1BD",
"U. c #F5D0BD",
"Y. c #F8D2BD",
"T. c #FAD3BC",
"R. c #BEBDC2",
"E. c #C0BFC4",
"W. c #C4C1C4",
"Q. c #CCC7C9",
"!. c #CFC9CB",
"~. c #DCCCCC",
"^. c #D5C4C5",
"/. c #D7CED0",
"(. c #DCD3D5",
"). c #DDDDDD",
"_. c #F7D3C1",
"`. c #FBD5C2",
"'. c #FED8C5",
"]. c #FED8C5",
"[. c #F3D7CB",
"{. c #E3DDDD",
"}. c #E3DFE0",
"|. c #E9E6E5",
" X c #F5F3F1",
/* pixels */
"                                                                                                                                ",
"                                                                                                                                ",
"                                                          3 3 9 3 9 < X                                                         ",
"                                                        q e e e e e 9 o X                                                       ",
"                                                      9 e j j j z j t 1 : < < O X X                                             ",
"                                                    q q g z c v z j g e e e e r < o X                                           ",
"                                              X O < e j z c v z j g g j j j j j q : X                                           ",
"                                            < : < q j z c c z z j g j z c c c z p + X                                           ",
"                                          3 < 3 r j z v v v z j j l z z c c z j r ; X X                                         ",
"                                          < 3 9 g v v v v v z z z x c v c l k r 1 X X X X                                       ",
"                                          X < q z V C v z v z z z c c c z k d 6 > # X X X X                                     ",
"                                        X O 4 g v C G C v v v v v c c c z l g d e w 3 : X X X                                   ",
"                                      X o 1 e j v C G G Z v c v c z v v z z z z z l p 9 ; X X                                   ",
"                                      X ; w k l v V C C n z z n Z Z v v v v v n v c l p r 1 X                                   ",
"                                      X 3 g l v z v v v z j z Z G G Z v z v v C V v z l p 3 1 X                                 ",
"                                      . 3 j v v v v v v j k z n C Z n z z v v V v c z l g e 3 1 :                               ",
"                                      X 9 j z z z z z j g g j z v v z j l c v z z j k g g g q 4 <                               ",
"                                      = 7 g z c z z j k g k j j j j j g j z c c z l j g g g q 4 <                               ",
"                                      % 5 e j z z j g g g g g g g g k g j z z c z z j g g p 9 4 <                               ",
"                                      % , e g j j g g q q e k g g k g g g l l l j g g q r 9 < < :                               ",
"                                      % * e g g k g j c n V n j g g k g g k g g p r 9 3 , = X X                                 ",
"                                      % , q g g q q V <.d.w.4.V k g k g k g g k p 3 < < : X X                                   ",
"                                      % w c Z Z V V ,.N._._.v.A f g g k g k g g p 9 3 3 > X X                                   ",
"                                      # x ,.w.w.w.w.N._.].].n.W e p k g k g k g g e 9 3 = X                                     ",
"                                      > Z e.H.I.T._.T.T._._.w.A g j z z j g g k g g r < + X X                                   ",
"                                        C >.x.J.].].T.V.l.f.5.V l A Q / M k e g g g r 1 X X X                                   ",
"                                          e E n.].].H.u. . .! v M _ `  .( n k k g t 9 O . X                                     ",
"                                          # S b.].].G.[ ] 8.7.Z T X.&.l.p.( M g r r < X X                                       ",
"                                          $ T b.].].G./ 1.m.y.>.) *.Z.I.G.O.P p < 9 , o X                                       ",
"                                          ; S b.].].B.^ 1.^.~.s.+.&.Z.I.G.$.I p 2 < * % %                                       ",
"                                          ; T b.].].G.7.0.(.[.z.-.-.j.P.f.{ B p < < * %                                         ",
"                                          $ T n.`.].L.H.H.[.`.z.&.+.o.$.O.S j q < , %                                           ",
"                                          > A q.K.T.T.`.].`.P.k.&.` ' _ S k 3 3 5 % %                                           ",
"                                              / O.h.F.`.T.F.j.g.&.` ( N k < & % % % %                                           ",
"                                              d b X.%.C.C.+.+.&.$.` Y h > % % @ % %                                             ",
"                                                  L P ! R W ) ..' ' Y a = % %                                                   ",
"                                                  , ; 6 h m ! 6.a.a.8.;.V d %                                                   ",
"                                                      # b | s.M.(.{.{.E.2.z                                                     ",
"                                                      1 Q f.J.~.}. X X(.9.v -                                                   ",
"                                                      3 ;.~.{.!.(. X|.E.3.z -                                                   ",
"                                                      6 ;.(.).E.^.|.}.y.;.g                                                     ",
"                                                      < :.Q./.R.E.(./.y.:.g %                                                   ",
"                                                      6 C 0.t.A.A.^.t.2.D g *                                                   ",
"                                                      - d V 2.A.L.S.a.F k q < %                                                 ",
"                                                      % @ < R S.T.F.@.n * < < %                                                 ",
"                                                      % @ : P *.F.L.d.n * 2 7 %                                                 ",
"                                                      % % 5 b ' o.w.4.n q 9 < %                                                 ",
"                                                      % - 7 p x n V n c g q < %                                                 ",
"                                                        * < 3 6 9 r g z g r 5 %                                                 ",
"                                                          & , 4 q g l l g 9 %                                                   ",
"                                                            & < q g j j e ,                                                     ",
"                                                            5 , 9 e p q 9 -                                                     ",
"                                                            9 u u s y 3 6 %                                                     ",
"                                                          * g J K K s r %                                                       ",
"                                                          5 c / 5.,.D g %                                                       ",
"                                                          8 Z 3.9.0.:.j                                                         ",
"                                                          5 z H ;.;.G c                                                         ",
"                                                          % 8 d d g j                                                           ",
"                                                            % # X                                                               ",
"                                                                                                                                ",
"                                                                                                                                ",
"                                                                                                                                ",
"                                                                                                                                ",
"                                                                                                                                "
};
