/* XPM */
static char *_d161761044b49a0d9829b24052cce94pHv3LkLmSiqunxFm[] = {
/* columns rows colors chars-per-pixel */
"64 64 181 2 ",
"   c None",
".  c #010402",
"X  c #0B0B0C",
"o  c #0D100E",
"O  c #0F0B18",
"+  c #110D14",
"@  c #150E1F",
"#  c #151415",
"$  c #15111C",
"%  c #19151B",
"&  c #1B1C1B",
"*  c #2A201E",
"=  c #1A0E22",
"-  c #1D1524",
";  c #1E1B21",
":  c #1E132A",
">  c #221D22",
",  c #24132E",
"<  c #251A2C",
"1  c #291D2F",
"2  c #271731",
"3  c #242325",
"4  c #2A242D",
"5  c #2E2D2E",
"6  c #332723",
"7  c #332825",
"8  c #2F302F",
"9  c #30302F",
"0  c #3B312F",
"q  c #2C2432",
"w  c #2E2C30",
"e  c #312D33",
"r  c #362F39",
"t  c #2F3030",
"y  c #343433",
"u  c #3B3735",
"i  c #373837",
"p  c #383836",
"a  c #38353A",
"s  c #3D3D3C",
"d  c #483F3C",
"f  c #40403F",
"g  c #624137",
"h  c #67493F",
"j  c #3B3341",
"k  c #3D3842",
"l  c #413C43",
"z  c #454545",
"x  c #4B464D",
"c  c #4C4B4B",
"v  c #4C4646",
"b  c #534C49",
"n  c #574D48",
"m  c #4F504F",
"M  c #51504F",
"N  c #5D544F",
"B  c #555554",
"V  c #575857",
"C  c #585857",
"Z  c #575658",
"A  c #595959",
"S  c #5E5653",
"D  c #6B4C42",
"F  c #644F47",
"G  c #734D42",
"H  c #64524A",
"J  c #6B534A",
"K  c #77594B",
"L  c #7B5B4D",
"P  c #72554A",
"I  c #615555",
"U  c #615C5B",
"Y  c #65605E",
"T  c #636363",
"R  c #686564",
"E  c #686769",
"W  c #6B6B6B",
"Q  c #676669",
"!  c #737373",
"~  c #7B7B7C",
"^  c #984D35",
"/  c #88513E",
"(  c #895646",
")  c #925744",
"_  c #9B634B",
"`  c #8A6957",
"'  c #98715D",
"]  c #A4735A",
"[  c #BA7F5F",
"{  c #897060",
"}  c #947C6D",
"|  c #9B7C68",
" . c #817F7F",
".. c #867971",
"X. c #A37A63",
"o. c #908076",
"O. c #92847D",
"+. c #AF8064",
"@. c #B58365",
"#. c #BA8465",
"$. c #BC8868",
"%. c #C98C66",
"&. c #C48F6C",
"*. c #C6926E",
"=. c #CB936E",
"-. c #D3946C",
";. c #CE9973",
":. c #C29070",
">. c #DA9F75",
",. c #E3A87F",
"<. c #838383",
"1. c #878788",
"2. c #8A8A8B",
"3. c #928781",
"4. c #908F8F",
"5. c #9B8F89",
"6. c #9C918C",
"7. c #8E8D90",
"8. c #908F93",
"9. c #959496",
"0. c #9E9C9D",
"q. c #BD9E8D",
"w. c #B99F91",
"e. c #B0A19A",
"r. c #9F9FA2",
"t. c #A09FA0",
"y. c #A3A3A5",
"u. c #AEABAE",
"i. c #ACA7AE",
"p. c #B4A6A1",
"a. c #ABABB5",
"s. c #AEAEBF",
"d. c #B3B2B4",
"f. c #BEB9BB",
"g. c #B9B5B8",
"h. c #C1A08F",
"j. c #CAA289",
"k. c #C8A894",
"l. c #D2AA96",
"z. c #DBB19A",
"x. c #ECB48E",
"c. c #F1B78F",
"v. c #EABA9B",
"b. c #F7BB91",
"n. c #DDBCAD",
"m. c #C8BDBB",
"M. c #F8C19A",
"N. c #F8C8A8",
"B. c #E2C2B2",
"V. c #F7CDB4",
"C. c #F9CEB5",
"Z. c #F1CFBF",
"A. c #C7C2C3",
"S. c #C8C4C6",
"D. c #CDCACB",
"F. c #CAC7C8",
"G. c #D9C7C7",
"H. c #D8C7C8",
"J. c #D3CBCD",
"K. c #D8C8C8",
"L. c #D6D0CF",
"P. c #DBD0CF",
"I. c #D3CFD0",
"U. c #D4D2D2",
"Y. c #D9D4D4",
"T. c #DEDADA",
"R. c #E8D7CE",
"E. c #F2D1C1",
"W. c #E1DEDE",
"Q. c #E4D6D1",
"!. c #E1DFE0",
"~. c #E4E2E1",
"^. c #EBE8E7",
"/. c #ECEAE9",
"(. c #E8E6E6",
"). c #F1EFED",
"_. c #F4F1EE",
"`. c #F6F4F2",
"'. c #F9F7F6",
"]. c #F9F8F7",
"[. c #FEFEFE",
/* pixels */
"                                                                                                                                ",
"                                                                                                                                ",
"                                                        5 8 8 8 8                                                               ",
"                                                      5 8 y s s s s                                                             ",
"                                        5 5 8 8 5 9 8 8 9 f v B c z y > #                                                       ",
"                                        8 8 i s s f f p i z c B Z c z y 3 3                                                     ",
"                                        5 y s z c B m v z s s c B B m f y 5 w                                                   ",
"                                        5 8 s z B B Z B m z s z M B B m z s p y                                                 ",
"                                        % 4 t s z m B V B m z z v B B B m c f p 8 & #                                           ",
"                                      # & 5 w t s z m B B B m m m B B B V B c s 8 5 ; #                                         ",
"                                    # > 5 t y y p f v B V V V V B B m M V V B f y 5 5 ; #                                       ",
"                                    * 5 y d c c c z M M V C A A V B M B V A A m z s y 5 3                                       ",
"                                    8 y z m T A B B V V B V V A C B B C C W ! T B c f y 9                                       ",
"                                  8 5 i z Z T T C C V V T R T A C B B C Q ! ! E Z B c s 9                                       ",
"                                5 5 9 f M C C C C V V A ! ! ! R C M M C ! ! ! R Z V M s y                                       ",
"                                8 y f c Z C C C C V B C T Q Q A B m z M Y T E A C C B f y                                       ",
"                                5 s c B C C C C Z m z M C C V C B z p z c B Z Z V Z B f y                                       ",
"                                3 y z B V C V Z B z f z V C V B M z s y s z m B V Z B d 5                                       ",
"                                & 5 s c B V Z B z f i z B V Z M z z z s i f c B Z Z c i ;                                       ",
"                                # & 5 s v M m z f p s z c c c c z z z f s z z c c m c y #                                       ",
"                                # # & 8 f z z z i i z z z z z z z z z z z c z z z c z 8 #                                       ",
"                                  # # 8 f z z z s z z z z z z z f z z z z z z z z z f 5 #                                       ",
"                                    # 3 i z z z z c z c z z z f y s z c z z z z z z s 5 #                                       ",
"                                    # 3 y f z z z z z z z z z z f z z z z c z z z s y 3 #                                       ",
"                                    # u c M c z z v z z z c z z z z z c z z z z v M b p &                                       ",
"                                    ; D X.| B f z z z z z z z z z z z z z z z z M | @.K 3                                       ",
"                                    3 ` =.*.A y f z v z z z z z z c z z z z f y H #.=._ 7                                       ",
"                                    * _ >.;.U t y z z z z c z z z z z z z z y t J $.>._ 7                                       ",
"                                    7 _ *.#.F 5 8 i z z z z z z z z z z f i y 4 n @.&._ 7                                       ",
"                                      / _ L d < 5 8 i f z z z z z z z z i t 5 < y P _ ^                                         ",
"                                        6 # o % 5 5 5 y s f s s f s s p 5 5 5 - # & *                                           ",
"                                          . . # 5 5 5 y p i i s s i y y 5 5 5 - . .                                             ",
"                                            . o & ; 3 i b H P P G D b s 3 & > # X                                               ",
"                                              + & & 3 n ' @.%.-.%.#.' N 3 % % +                                                 ",
"                                              T T ! <.6.q.l.v.M.v.z.h.6.<.~ E T                                                 ",
"                                            c <.a.F.U.U.K.H.Q.R.Q.P.K.L.U.J.g.2.B                                               ",
"                                          T ~ u.U.).'.`./././././././.`.'./.Y.a.~ W                                             ",
"                                        l  .d.J.W._.].[.].].'.'.'.].].[.[.`.~.J.f.2.x                                           ",
"                                        w 2.U.W.W.(.].[.[.[.[.[.[.[.[.[.]./.W.!.U.4.a                                           ",
"                                        s 9.W.W.D.Y.'.[.[.[.[.[.[.[.[.[.].T.J.!.~.y.x                                           ",
"                                      T ~ f.(.T.d.A.).[.[.[.[.[.[.[.[.[.].L.d.Y./.A.2.E                                         ",
"                                    m ~ f.T.).J.0.g./.[.[.[.[.[.[.[.[.[.).g.9.F.`.!.m.2.B                                       ",
"                                  h ` w.K.T.U.u.! y.(.[.[.[.[.[.[.[.[.[.(.d.! r.U.W.U.w.{ P                                     ",
"                                5 L %.v.Z.K.0.U M 7.U.).[.[.[.[.[.[.[.`.T.t.Z Z 6.m.E.v.=.{ k                                   ",
"                                3 ` x.N.V.k.Y $ e ~ d.W.'.[.[.[.[.[.[.~.f.~ a $ I j.V.C.x.} j                                   ",
"                                4 ..n.V.b.;.I @ 4 z ~ f./.[.'.[.[.[.).S.~ c 1 O v &.c.C.B.O.j                                   ",
"                                  ..e.k.=.[ h , : q c 8.S.U.U.U.D.U.D.0.C w , , v ] *.j.p.}                                     ",
"                                    R Y I G   , 2 r c E 1.1.~ ~ ~ 1.1.E c i 1 ,   D I U T                                       ",
"                                      : :       , y z c z r ; < & e s z z i 1       < ,                                         ",
"                                                2 w y y q 2       , 4 y p e 2 ,                                                 ",
"                                                , 4 y 5 2           , 5 9 4 ,                                                   ",
"                                                q a z i 1 ,       , 1 a f a q <                                                 ",
"                                              0 d U ! T s ,       , r A ! T g 0                                                 ",
"                                            q d ) O.y.2.z 2       - z <.t.5.) g q                                               ",
"                                            w C O.i.s.7.z 2       % z 2.s.i.3.T e =                                             ",
"                                            r E t.a.a.2.z           z 2.i.s.t.W a                                               ",
"                                              R <.2.1.! m             ! 2.2.<.E                                                 ",
"                                                z f z c                 z f z                                                   ",
"                                                  #                       #                                                     ",
"                                                                                                                                ",
"                                                                                                                                ",
"                                                                                                                                ",
"                                                                                                                                ",
"                                                                                                                                "
};
