/* XPM */
static char *c9f71d1990524080acd5aa174d70e103l9qkYtDoB5HctJ7H[] = {
/* columns rows colors chars-per-pixel */
"64 64 205 2 ",
"   c None",
".  c #020402",
"X  c #070A0C",
"o  c #0A0B0D",
"O  c #05070C",
"+  c #0E0D14",
"@  c #0F1111",
"#  c #131314",
"$  c #19161B",
"%  c #1A1C1D",
"&  c #1A1918",
"*  c #160F1E",
"=  c #261E1A",
"-  c #1C1422",
";  c #1E1D22",
":  c #1C0F27",
">  c #24132E",
",  c #25192C",
"<  c #251F28",
"1  c #271B31",
"2  c #242324",
"3  c #2A232D",
"4  c #2E2E2E",
"5  c #212029",
"6  c #322A27",
"7  c #2F302F",
"8  c #33302F",
"9  c #2C2431",
"0  c #2E2A31",
"q  c #312C32",
"w  c #343333",
"e  c #383837",
"r  c #39333A",
"t  c #3C3C3B",
"y  c #3A3434",
"u  c #403638",
"i  c #433E3E",
"p  c #493D38",
"a  c #533B33",
"s  c #663E32",
"d  c #663D2F",
"f  c #43403E",
"g  c #49423F",
"h  c #5A453D",
"j  c #6B4639",
"k  c #6B4538",
"l  c #784B3D",
"z  c #403F41",
"x  c #454544",
"c  c #4C4442",
"v  c #484847",
"b  c #4C4B4B",
"n  c #474648",
"m  c #51514F",
"M  c #555554",
"N  c #5A5653",
"B  c #585857",
"V  c #575658",
"C  c #595959",
"Z  c #5C4B46",
"A  c #6B4D46",
"S  c #615D5B",
"D  c #665854",
"F  c #7C5F50",
"G  c #71584E",
"H  c #6A615C",
"J  c #7B6053",
"K  c #635F60",
"L  c #636363",
"P  c #686563",
"I  c #676868",
"U  c #6C6C6C",
"Y  c #696866",
"T  c #766D68",
"R  c #7D726B",
"E  c #747474",
"W  c #7B7B7C",
"Q  c #9C4B31",
"!  c #904B35",
"~  c #874835",
"^  c #855D4C",
"/  c #885A47",
"(  c #9C644B",
")  c #866D5E",
"_  c #826758",
"`  c #966A56",
"'  c #A16E55",
"]  c #856E60",
"[  c #8C7669",
"{  c #9D7C67",
"}  c #877C76",
"|  c #947F73",
" . c #9D897E",
".. c #968277",
"X. c #AA8167",
"o. c #B48264",
"O. c #BB8463",
"+. c #B48669",
"@. c #B9896A",
"#. c #A68877",
"$. c #B7927A",
"%. c #C38C69",
"&. c #C78B67",
"*. c #C9926E",
"=. c #D3946C",
"-. c #CC9B79",
";. c #C69474",
":. c #D69B72",
">. c #D79E76",
",. c #DDA37B",
"<. c #EDAB7A",
"1. c #E3A477",
"2. c #F4B07C",
"3. c #7F7F80",
"4. c #838384",
"5. c #8C8C8C",
"6. c #878889",
"7. c #9A8B84",
"8. c #98928F",
"9. c #908F94",
"0. c #8F9091",
"q. c #939395",
"w. c #979799",
"e. c #9B9A9B",
"r. c #AC9184",
"t. c #A8958B",
"y. c #B19484",
"u. c #B99A88",
"i. c #A49B99",
"p. c #ACA09B",
"a. c #9E9FA1",
"s. c #A5A4A5",
"d. c #AAABAD",
"f. c #A9A5A7",
"g. c #BCA8A0",
"h. c #BCAFAB",
"j. c #B0A8A9",
"k. c #BDB0AE",
"l. c #B3B2B3",
"z. c #BDBABC",
"x. c #BAB6BA",
"c. c #C69C81",
"v. c #CCA289",
"b. c #DDA985",
"n. c #C2A99D",
"m. c #D4AD98",
"M. c #EDAF82",
"N. c #EDB288",
"B. c #F3B282",
"V. c #EBB693",
"C. c #E1B59A",
"Z. c #EBB895",
"A. c #F4BF9A",
"S. c #F4BC94",
"D. c #D7BAAC",
"F. c #C3B9B9",
"G. c #D2BBB1",
"H. c #CDB6AE",
"J. c #E7BDA5",
"K. c #F6C19C",
"L. c #DDC3BA",
"P. c #F7C6A5",
"I. c #E4C4B4",
"U. c #EBC6B4",
"Y. c #E3C6B9",
"T. c #EECCBC",
"R. c #E6C9BD",
"E. c #F2CBB5",
"W. c #F8CDB2",
"Q. c #F3CEBA",
"!. c #F6D1BD",
"~. c #F9D2BC",
"^. c #EBC0A6",
"/. c #C1BEC0",
"(. c #CBC2C5",
"). c #CAC6CA",
"_. c #C7C4C6",
"`. c #D2CDCE",
"'. c #D7CAC7",
"]. c #CFCED0",
"[. c #D2D1D1",
"{. c #DBD4D5",
"}. c #DEDBDC",
"|. c #DCD7D8",
" X c #E9CCC1",
".X c #F5D3C3",
"XX c #F8D3C0",
"oX c #FAD5C2",
"OX c #FED8C6",
"+X c #FED8C5",
"@X c #F3D9CB",
"#X c #E1DDDD",
"$X c #EDD4CB",
"%X c #E0E0DF",
"&X c #FAE5DA",
"*X c #E5E3E3",
"=X c #E8E5E5",
"-X c #ECEAE8",
";X c #EAE9E7",
":X c #F6EDE8",
">X c #F4F1EF",
",X c #F6F4F3",
"<X c #F8F7F5",
"1X c #FBF9F7",
"2X c #FCFCFC",
/* pixels */
"                                                                                                                                ",
"                                                                                                                                ",
"                                                            7 7 8 7 7                                                           ",
"                                                          e t z e w 4 4                                                         ",
"                                                    # 4 w v m m v e 7 7 7 7 7 4 4 4 4                                           ",
"                                                  2 2 w x m M m b t e t t f t e w 7 4                                           ",
"                                                4 7 w x b M M x t x x b b M b v t w 4                                           ",
"                                              e e t x m B M b x e x M M C M M x w 4 4                                           ",
"                                        # 2 w e v b m M C m v x v M M M V m x t 7 2 $                                           ",
"                                      # ; 0 w f b B M M M m b b m M M M b x e w 0 2 $ #                                         ",
"                                    # 2 q 7 e v M B B M v M M B M B M b x e e w w 7 4 $ #                                       ",
"                                  2 2 w e t x M C C M M M M V C C B B M b v v b b z 7 3 2                                       ",
"                                  4 7 e x v M L U L B B M M C C B M M B M M B L L b e w 7                                       ",
"                                  7 w t b M M I E E L B M M C C I I K B B B V L L M x e 7 7                                     ",
"                                  7 w x M B C L E E U B m M V L E E U C V C B B M B b e w 7 4                                   ",
"                                  7 w x M C C C I L L m v m V L I I L M M M B B B M M b e w 4                                   ",
"                                  4 w x M B B B B m b v v m B C B B B m b M M B B B M M x w 8                                   ",
"                                  2 4 x M B B M m v v v v b m V B B M b x b M M B C C M x w 2                                   ",
"                                  # 2 f M V M m x x x x x v b m M B M x x x b M V M M v e 2 #                                   ",
"                                  # % e v M b v z e e f v x x b m m b t e t x v b M v e 0 $ #                                   ",
"                                  @ ; w x v v C P H M b x x x x x x v B S I H M v v t 3 # # #                                   ",
"                                  # - w x v C #.g.k.u.E x e t z z e H  .g.h.8.I v n z 2 # #                                     ",
"                                  # - w x x I g.T.oXY.i.I L I I I H 6.D.!.oXG.[ x z e 2 #                                       ",
"                                  # - w t e L k.oXOX!.L.k.k.k.k.h.h.F.Q.OX+XI...x e e 2 #                                       ",
"                                  o < x m v H n.~.oX!.Q.!.!.!.oX!.Q.Q.!.!.!.I.[ v m m w @                                       ",
"                                  O 4 _ X.T Y -.K.S.C.C.J.!.oXOXoXU.C.C.Z.K.b.] H { { h +                                       ",
"                                  X f o.:.X.H +.<.<.@.%.;.I.OXOXR.m.%.@.,.2.:.] ) *.&.j @                                       ",
"                                  X f +.1.+.H +.<.V.g.#.#.H.oXOXY.t.X.r.m.2.:.] ) >.=.j @                                       ",
"                                    c o.%.` G @.M.U.(.5.E k.!.OXI...U j.L.Z.,.J F %.O.j %                                       ",
"                                      / ( A j O.Z.@X{.q.E h.oXOXI...E z.$XK.,._ g / ( l                                         ",
"                                        = # h O.V..X}.l.t.G.oXOXU.a.a.`.@XK.=.j % & 6                                           ",
"                                          . y ( ,.U.OXR.L.T.oXOX!.Y.L.@X~.V.O.k o .                                             ",
"                                            8 / +.g.I.I.Q.!.~.oX~.W.T.I.D.$.` p #                                               ",
"                                              c D [ ..c.m.A.K.K.S.V.v.#.[ H Z f                                                 ",
"                                              I U 4.8.y.1.B.B.B.B.<.v.t.5.E I                                                   ",
"                                            V w.x.[.[.'.E.W.W.E.W.E.L.[.[._.f.E                                                 ",
"                                          U 5.x.#X,X<X:X&X&X&X&X&X&X:X<X,X=X).e.E                                               ",
"                                        M e./.{.%X,X2X1X<X<X<X<X<X1X1X2X2X;X}.).f.U                                             ",
"                                      o M l.|.}.|.=X<X<X1X<X<X1X<X<X<X<X>X%X}.%X).W ;                                           ",
"                                        C z.=X{.(.{.=X-X-X;X;X;X-X-X-X;X|.(.`.*X[.4.0                                           ",
"                                      U w.[.>X[.d./.%X*X;X;X;X;X-X-X*X%X`.d.z.=X*Xf.W                                           ",
"                                    V q._.=X-Xx.0.l.%X>X<X1X1X1X1X1X,X=X).q.s.%X-X[.d.U                                         ",
"                                  G { H.{.|.).9.E l.%X,X2X2X2X2X2X2X2X-X(.5.W z.|.#X(.7.^                                       ",
"                                i ' >.U. XF.4.M L l.|.,X2X2X2X2X2X<X<X=X_.6.b E f. XU.M.+.A                                     ",
"                              o z +.V.W.J.$.z * b e.z.[.[.[.[.[.[.[.[.).f.I ; 5 [ J.~.P.-.S -                                   ",
"                                c y.Y.W.M.o.i + w L 4.5.5.5.4.3.5.5.5.6.E n - ; ) >.P.~.H.K >                                   ",
"                                N 7.h.v.*.( u : 9 x M M b z q 3 r v M M v w > 9 F { :.n.i.P                                     ",
"                                  Y K S A A   > 3 z m M v e > > 0 x M M x w >     A G K P                                       ",
"                                    1 : 1       9 t n v x w > > 0 x x v x q >       - >                                         ",
"                                              > 1 w e w q 9       0 w e w 9 >                                                   ",
"                                                > 0 w 3 >         > , 7 8 1 >                                                   ",
"                                              9 9 7 e q >         > 3 w w 4 1                                                   ",
"                                            9 a d s k y >         > 9 a s d a w                                                 ",
"                                            q j Q Q ! c 9         > r l Q Q ~ y 1                                               ",
"                                          > t U 7.r...C 0         > b } r.r.} b 1                                               ",
"                                            n 6.d.d.e.I r         > V 9.d.d.q.C 4                                               ",
"                                            M U 5.5.4.I             C W 5.5.W K                                                 ",
"                                              v f x x                 x x t x                                                   ",
"                                                  #                       #                                                     ",
"                                                                                                                                ",
"                                                                                                                                ",
"                                                                                                                                ",
"                                                                                                                                ",
"                                                                                                                                "
};
