/* XPM */
static char *_1b02807e33747bad60fcd9f58018692jUYuuxnpK8T7kmBs[] = {
/* columns rows colors chars-per-pixel */
"64 64 179 2 ",
"   c None",
".  c #030209",
"X  c #07060B",
"o  c #0A0713",
"O  c #150C1C",
"+  c #141314",
"@  c #171817",
"#  c #16111B",
"$  c #19161B",
"%  c #1C1A1D",
"&  c #1D1323",
"*  c #1F1B20",
"=  c #200E2B",
"-  c #201D23",
";  c #24132F",
":  c #261C2D",
">  c #291E2E",
",  c #201527",
"<  c #271730",
"1  c #1F2024",
"2  c #242324",
"3  c #2A242D",
"4  c #2E2D2E",
"5  c #30302F",
"6  c #2C2332",
"7  c #2F2C30",
"8  c #312C33",
"9  c #352F39",
"0  c #312736",
"q  c #343333",
"w  c #383837",
"e  c #37303C",
"r  c #39353B",
"t  c #3C3C3C",
"y  c #3F3631",
"u  c #443B38",
"i  c #653D31",
"p  c #3F403E",
"a  c #42403F",
"s  c #59453E",
"d  c #684236",
"f  c #3C3440",
"g  c #423C44",
"h  c #454545",
"j  c #4E4746",
"k  c #484847",
"l  c #4C4C4B",
"z  c #524C4B",
"x  c #5E4A43",
"c  c #50504F",
"v  c #555554",
"b  c #5B5653",
"n  c #585857",
"m  c #595959",
"M  c #755548",
"N  c #635E5B",
"B  c #64605E",
"V  c #7D665A",
"C  c #646464",
"Z  c #696562",
"A  c #6B6B6B",
"S  c #7A6B61",
"D  c #756E69",
"F  c #7E7067",
"G  c #7A716B",
"H  c #737373",
"J  c #7B7B7B",
"K  c #797775",
"L  c #954B34",
"P  c #9D4B31",
"I  c #865E4C",
"U  c #836858",
"Y  c #976D59",
"T  c #89705F",
"R  c #A06B53",
"E  c #8E7564",
"W  c #8F7769",
"Q  c #86766C",
"!  c #947B6B",
"~  c #9D7D69",
"^  c #867970",
"/  c #937D70",
"(  c #A37F69",
")  c #8D837E",
"_  c #99857A",
"`  c #A3826D",
"'  c #B58669",
"]  c #B98768",
"[  c #BC8B6B",
"{  c #B88769",
"}  c #A38472",
"|  c #A28B7D",
" . c #AA8670",
".. c #B3927E",
"X. c #C28D6B",
"o. c #CB936E",
"O. c #C99778",
"+. c #D69C74",
"@. c #D99D74",
"#. c #D29C79",
"$. c #E2A376",
"%. c #ECAB7C",
"&. c #F3AF7D",
"*. c #F4B07D",
"=. c #818181",
"-. c #8C8B8C",
";. c #9C8A83",
":. c #938C89",
">. c #9E928B",
",. c #979696",
"<. c #AB9488",
"1. c #BE9780",
"2. c #B99D8D",
"3. c #A89A95",
"4. c #AFA49F",
"5. c #BFA192",
"6. c #A3A3A5",
"7. c #ACACAE",
"8. c #A6A6AC",
"9. c #BCAEAA",
"0. c #B7A8A4",
"q. c #BDB0AD",
"w. c #ADABB1",
"e. c #B8B5B7",
"r. c #C09C84",
"t. c #C9A187",
"y. c #D3A383",
"u. c #C7A393",
"i. c #D3A992",
"p. c #E4AF8B",
"a. c #EFB489",
"s. c #F3B283",
"d. c #F0B78F",
"f. c #F4B88C",
"g. c #E4B699",
"h. c #E6B89B",
"j. c #F2B990",
"k. c #D0AFA2",
"l. c #C5B2AC",
"z. c #CFB9AF",
"x. c #C9B5AE",
"c. c #CABFBE",
"v. c #C5B9B7",
"b. c #E6BEA7",
"n. c #E2BDA8",
"m. c #F6C09A",
"M. c #DDC2B8",
"N. c #E8C1AB",
"B. c #F7C6A5",
"V. c #F7C7A8",
"C. c #ECC9B6",
"Z. c #E3C7BA",
"A. c #EECCBC",
"S. c #E5C6B7",
"D. c #F5CCB3",
"F. c #F9CFB5",
"G. c #F3CFBC",
"H. c #F6D1BC",
"J. c #FAD3BC",
"K. c #F9D0B7",
"L. c #BDBCC1",
"P. c #CEC9CB",
"I. c #CEC6C9",
"U. c #D7C4C3",
"Y. c #D6C8C8",
"T. c #D1CFD1",
"R. c #DBD2D5",
"E. c #E7CBC3",
"W. c #F6D3C0",
"Q. c #FAD5C1",
"!. c #FED8C5",
"~. c #F9D7C8",
"^. c #E0D4D4",
"/. c #E3DCDB",
"(. c #E4D8D5",
"). c #E4E2E2",
"_. c #EBE9E9",
"`. c #EAE9E7",
"'. c #F7F6F4",
/* pixels */
"                                                                                                                                ",
"                                                                                                                                ",
"                                                      @ 2 5 5 5 5 5                                                             ",
"                                                    + @ 5 t t p p t w                                                           ",
"                                          + + $ 3 5 2 2 t l v l l l h q                                                         ",
"                                          @ 2 q t t t t h l c n m v l t w                                                       ",
"                                          $ q l l l c l k h l n m n v c p q - +                                                 ",
"                                        + % q l n n n n l h k v v n v v l w 4 2 2                                               ",
"                                      + + @ q h c v m m n c l l v v m n v l t 5 7 4                                             ",
"                                    + + + + 2 w f c v m n n v c v n n n m m l w 5 4                                             ",
"                                  + + + + $ * 4 f l c m m n n v n m n m A A v g 4 %                                             ",
"                                  + + % 4 q t t h l v v n m m n n m m C H H m k q * +                                           ",
"                                  @ * 5 p l v n v v n m m m m n m n C H H H m c t 7 % +                                         ",
"                                # * 8 h c n n m m m m n m C C C n n m C A C m v l t 3 +                                         ",
"                              + * 7 p l n n m H C n n n C J H A m c v n m n m m v l 5 @                                         ",
"                              2 4 q h l n c n C m n v v m C A B v k l c v m m n n l q +                                         ",
"                              4 q h h k k k v v n n c l c m m m c k h l v v n n v l 5 @                                         ",
"                              5 w h k h h v v v m n c h k l c l k h h h k v v v v l q ,                                         ",
"                              8 q a h h k v v n v v c h h h k k h h h h h l v v l h 8 ;                                         ",
"                              2 4 5 q t p h l l c c k h k h h h h h w w a h l l k t q ;                                         ",
"                              + @ @ 2 5 q q t h k h h k h k k l m Z C b l h h h h t 5 ;                                         ",
"                                + + 2 4 4 4 w h h k k h h h h m _ 0.q.2.G h w g h w 8 ;                                         ",
"                                  + 1 4 4 q w h k h h k k h p C 9.A.J.Z.3.Z C A A Z h >                                         ",
"                                  + 1 5 q w h k h k k h k h w C 9.Q.!.Q.M.9.9.9.9.3.Z 8                                         ",
"                                  + $ 4 w h h k h h l c n c t N 5.A.W.H.H.W.Q.H.A.l.^ q                                         ",
"                                  + + - q h k h p p m F ! F v v } i.g.b.H.!.!.H.l.3.^                                           ",
"                                  + + @ 5 t h h h c W [ X.' V v ! [ [ O.S.Q.!.Z.:.l                                             ",
"                                    + + 3 q q h v E O.h.a.@.R N :.4.| } l.Q.!.Z.-.8                                             ",
"                                      # > 4 5 t Z { g.H.B.%.] _ 7.c.-.H 9.Q.!.Z.-.e                                             ",
"                                      ; 3 5 4 t Z [ h.H.D.s.$.y.U.R.,.A 9.Q.!.Z.-.f                                             ",
"                                      ; : 4 4 q m ` i.C.m.*.*.f.Q.(.e.3.z.H.!.Z.-.f                                             ",
"                                        ; 3 4 q k B ` #.+.@.%.s.K.!.E.Z.A.!.!.Z.-.f                                             ",
"                                          ; : 4 7 t N ( ( ] +.s.B.J.!.!.J.K.A.z.) g                                             ",
"                                          ; ; ; ; 6 h N ( ] +.s.s.B.K.!.F.d.r.) D                                               ",
"                                          ; ; ; ; ; : r U ] o.%.$.@.h.N.p.o.Y z                                                 ",
"                                                ; ; , r S ] ' X.' E W / T U M                                                   ",
"                                                  8 n J <.u.u.r. .V z 9 2 3                                                     ",
"                                                o f -.e.R.).R.Y.k.X.I 3 .                                                       ",
"                                                o g -.P.`.'.`.R.E.n._ r                                                         ",
"                                                + h =.e.).'./.I.^.(.6.f X                                                       ",
"                                                @ t K w.R.`.T.L.R./.w.g .                                                       ",
"                                                  t H 8.T.R.I.L.P.T.,.f .                                                       ",
"                                                ; r C ,.v.Y.U.c.I.w.) 9 o                                                       ",
"                                              ; 3 q h N ..h.D.M.4.K k 6 =                                                       ",
"                                              ; 7 5 3 k [ f.F.N._ h # ; ;                                                       ",
"                                              ; 4 q : j <.C.V.%.~ 9 O ; ;                                                       ",
"                                              ; 7 q q c :.0.t.X.I r ; ; ;                                                       ",
"                                              ; 4 w p c B Z N b u q 3 ;                                                         ",
"                                              ; > q h v l t q 4 7 7 3 ;                                                         ",
"                                                ; 4 a l c k p 5 4 > ;                                                           ",
"                                                  > w h l h r 5 3                                                               ",
"                                                  ; 4 r p p q 4 3                                                               ",
"                                                  ; 3 q u d i i y                                                               ",
"                                                    ; 7 x L P L s 6                                                             ",
"                                                    ; e A ;.<.;.C 8 &                                                           ",
"                                                      h K 6.7.6.H 9 #                                                           ",
"                                                        A -.-.J m 0 &                                                           ",
"                                                          h h h e <                                                             ",
"                                                            @ & ;                                                               ",
"                                                                                                                                ",
"                                                                                                                                ",
"                                                                                                                                ",
"                                                                                                                                ",
"                                                                                                                                "
};
