/* XPM */
static char *_9848a3f6235433aaf258c561753f0a2QvO7WTLDL5pAkCfj[] = {
/* columns rows colors chars-per-pixel */
"32 32 168 2 ",
"   c None",
".  c #1F151B",
"X  c #1F161F",
"o  c #21110D",
"O  c #22110D",
"+  c #22120D",
"@  c #221210",
"#  c #261510",
"$  c #201417",
"%  c #281710",
"&  c #291710",
"*  c #2A1811",
"=  c #2B1912",
"-  c #2B1A12",
";  c #2C1A12",
":  c #2F1D14",
">  c #2F1D16",
",  c #2F1D17",
"<  c #2C1C1B",
"1  c #2F1F1C",
"2  c #301D14",
"3  c #301D15",
"4  c #321F16",
"5  c #322016",
"6  c #332016",
"7  c #362217",
"8  c #35221C",
"9  c #37241D",
"0  c #382418",
"q  c #392419",
"w  c #392519",
"e  c #39241A",
"r  c #38251B",
"t  c #3C271A",
"y  c #3C271B",
"u  c #3C271D",
"i  c #3F291C",
"p  c #3C281E",
"a  c #1E1620",
"s  c #1E1723",
"d  c #1C1826",
"f  c #19192B",
"g  c #1A1A2D",
"h  c #241A21",
"j  c #201A25",
"k  c #201B27",
"l  c #271E28",
"z  c #2B2027",
"x  c #2C2127",
"c  c #2F2327",
"v  c #312428",
"b  c #322528",
"n  c #342629",
"m  c #402A1C",
"M  c #412B1D",
"N  c #422B1D",
"B  c #422C1E",
"V  c #432C1F",
"C  c #442E1E",
"Z  c #462F1F",
"A  c #422C20",
"S  c #432C20",
"D  c #422E20",
"F  c #442E22",
"G  c #452F22",
"H  c #462F22",
"J  c #473020",
"K  c #483021",
"L  c #483121",
"P  c #493121",
"I  c #4A3122",
"U  c #4B3222",
"Y  c #4C3323",
"T  c #4D3323",
"R  c #4C3423",
"E  c #4D3423",
"W  c #4D3523",
"Q  c #483325",
"!  c #493426",
"~  c #493526",
"^  c #4E3524",
"/  c #4F3524",
"(  c #4D3426",
")  c #523826",
"_  c #533927",
"`  c #553A27",
"'  c #553A28",
"]  c #563B28",
"[  c #573B28",
"{  c #573B29",
"}  c #573C28",
"|  c #5A3E2A",
" . c #5C3F2B",
".. c #5C402B",
"X. c #5B402C",
"o. c #5C412D",
"O. c #5E412C",
"+. c #5F422D",
"@. c #60432D",
"#. c #60432E",
"$. c #61442F",
"%. c #62442E",
"&. c #64462F",
"*. c #624632",
"=. c #664730",
"-. c #674730",
";. c #664831",
":. c #674831",
">. c #654832",
",. c #674932",
"<. c #684831",
"1. c #684931",
"2. c #694A31",
"3. c #694932",
"4. c #694A32",
"5. c #6A4A32",
"6. c #6B4B33",
"7. c #6C4C33",
"8. c #684A34",
"9. c #6D4C34",
"0. c #6D4D34",
"q. c #6E4D34",
"w. c #6F4E35",
"e. c #6D4D36",
"r. c #6E4E36",
"t. c #6F4F38",
"y. c #714F36",
"u. c #6F5038",
"i. c #6F513B",
"p. c #715036",
"a. c #735137",
"s. c #735237",
"d. c #745237",
"f. c #745238",
"g. c #755238",
"h. c #73543E",
"j. c #77563C",
"k. c #79563B",
"l. c #79573B",
"z. c #7A583D",
"x. c #7E5B3F",
"c. c #775841",
"v. c #775941",
"b. c #785942",
"n. c #7E5C42",
"m. c #815E44",
"M. c #815F44",
"N. c #856247",
"B. c #866247",
"V. c #886448",
"C. c #8B664A",
"Z. c #8D684C",
"A. c #8E694C",
"S. c #8E694D",
"D. c #8E6A4D",
"F. c #8F6A4E",
"G. c #906B4E",
"H. c #926D50",
"J. c #936D50",
"K. c #936E50",
"L. c #956F52",
"P. c #967052",
"I. c #967053",
"U. c #977153",
"Y. c #967054",
"T. c #997355",
"R. c #997356",
"E. c #9B7457",
/* pixels */
"                                                                ",
"                                                                ",
"                                                                ",
"                                                                ",
"                                                                ",
"                                                                ",
"                                                                ",
"                      u J ~ ~ ~ ~ Q D w                         ",
"                    R *.h.c.c.b.c.c.i.X.V                       ",
"                  L 8.N.U.U.Z.Z.F.U.H.n.X.V                     ",
"                2 ..m.Y.E.V.z.l.x.G.E.H.j.^                     ",
"                : ..m.U.E.V.z.l.x.G.E.H.j.R ;                   ",
"                - ^ t.V.U.L.Z.Z.G.U.G.N.:.m -                   ",
"                  t _ r.N.Z.Z.Z.Z.Z.M.:.Y 0                     ",
"                  % w ) :.r.r.r.r.r.$.L 2                       ",
"                  o - 7 m Z Z Z Z J V 6 #                       ",
"                  + 2 t L ` [ / | +.] m =                       ",
"                  + w ) #.7.7.&.:.7.=.^ 2                       ",
"                  + q ` 5.g.d.7.$.<.=.^ 2                       ",
"                  @ w [ y.d.p.y.$.<.<.Y 2                       ",
"                  $ u ] <.5.<.y.7.7.-.Y 2 h                     ",
"                  $ u ) @.}  .p.g.7.#.L , s                     ",
"                  a 8 H Y m ^ <.<.X.^ S < d                     ",
"                  g h 8 N m n ( J J D 1 s                       ",
"                    g l v c c v z v v k                         ",
"                                                                ",
"                                                                ",
"                                                                ",
"                                                                ",
"                                                                ",
"                                                                ",
"                                                                "
};
