/* XPM */
static char *_9bbe90a903f467fb75e811144f8168bbqgopvo36QlQnNDg[] = {
/* columns rows colors chars-per-pixel */
"32 32 46 1 ",
"  c None",
". c #3D6E35",
"X c #3E6738",
"o c #3E6838",
"O c #3C7234",
"+ c #387E31",
"@ c #387F31",
"# c #5F442C",
"$ c #474B3F",
"% c #474C3F",
"& c #464F3E",
"* c #5A4431",
"= c #46503E",
"- c #435A3B",
"; c #7F5B33",
": c #416139",
"> c #4A4341",
", c #494342",
"< c #494541",
"1 c #484740",
"2 c #484840",
"3 c #74604B",
"4 c #746657",
"5 c #6A6765",
"6 c #6C6967",
"7 c #6C6969",
"8 c #6E6C6A",
"9 c #6F6C6B",
"0 c #716C68",
"q c #706D6B",
"w c #706D6C",
"e c #716E6C",
"r c #74716E",
"t c #74716F",
"y c #854905",
"u c #874A05",
"i c #884A04",
"p c #8F4E05",
"a c #8F4F06",
"s c #925006",
"d c #9A5406",
"f c #9B5507",
"g c #9C5606",
"h c #85541D",
"j c #32932B",
"k c #319729",
/* pixels */
"                                ",
"                                ",
"                                ",
"                                ",
"                                ",
"                                ",
"               =%               ",
"              $@O<              ",
"             %@kkO<             ",
"             2:XX-<             ",
"             <>#*>              ",
"               i                ",
"               a                ",
"               y                ",
"               a                ",
"               g                ",
"               d                ",
"               s                ",
"               p                ",
"               y                ",
"               g                ",
"              qh;               ",
"             er34t              ",
"             qe79ee             ",
"             95  7e             ",
"             q    9             ",
"                                ",
"                                ",
"                                ",
"                                ",
"                                ",
"                                "
};
