/* XPM */
static char *result[] = {
/* columns rows colors chars-per-pixel */
"16 16 82 1 ",
"  c #020305",
". c #050606",
"X c #060606",
"o c #040708",
"O c #090708",
"+ c gray3",
"@ c #090808",
"# c #1E0A06",
"$ c #1C0C07",
"% c #1D0C07",
"& c #1E0D07",
"* c #1F0D07",
"= c #191A16",
"- c #1E1B16",
"; c #2A0E07",
": c #2A0F07",
"> c #2B0F07",
", c #2C0C04",
"< c #2C0E05",
"1 c #321007",
"2 c #361106",
"3 c #381106",
"4 c #381206",
"5 c #3D1206",
"6 c #2F1F16",
"7 c #302D25",
"8 c #322E24",
"9 c #6A1B04",
"0 c #691C05",
"q c #6B1C05",
"w c #6C1C05",
"e c #761E04",
"r c #7E1E03",
"t c #472315",
"y c #7E2004",
"u c #7F2004",
"i c #6F2B14",
"p c #59513E",
"a c #5B523F",
"s c #6C553D",
"d c #802004",
"f c #812004",
"g c #822004",
"h c #8B2102",
"j c #8B2203",
"k c #892204",
"l c #932403",
"z c #952403",
"x c #962403",
"c c #922404",
"v c #992503",
"b c #963312",
"n c #A62601",
"m c #BB2A01",
"M c #BB2C02",
"N c #BE2C02",
"B c #CB3002",
"V c #CE3001",
"C c #CF3001",
"Z c #CC3002",
"A c #CD3002",
"S c #CE3002",
"D c #D13001",
"F c #D23001",
"G c #D13F11",
"H c #E53401",
"J c #E63501",
"K c #E73501",
"L c #F53800",
"P c #F83800",
"I c #F93800",
"U c #F83900",
"Y c #FA3800",
"T c #FB3900",
"R c #F83A00",
"E c #FD3900",
"W c #FE3900",
"Q c #FE3A00",
"! c #FF3A00",
"~ c #945D3C",
"^ c #AD9A75",
"/ c None",
/* pixels */
"///////O@///////",
"/////;effe://///",
"////%uJIIJy%////",
"///>kHTIYTHk>///",
"///2VEPIPPTZ2///",
"///2CEYHlygq*///",
"///2VWKr6p-X////",
"///2C!F,7^8 ////",
"///2A!D<=a-.////",
"///*0vN1o+++////",
"///o$wgdg9*/////",
"////3MxcJS2/////",
"/////hG~bm4/////",
"/////#istn5/////",
"////&qgyzFj/////",
"/////BULRQZ/////"
};
