/* XPM */
static char *result[] = {
/* columns rows colors chars-per-pixel */
"16 16 30 1 ",
"  c #0B0709",
". c #090808",
"X c #0B0808",
"o c #0C0808",
"O c #0E0808",
"+ c #441406",
"@ c #571805",
"# c #581805",
"$ c #591805",
"% c #5B1805",
"& c #5D1905",
"* c #802004",
"= c #812004",
"- c #822004",
"; c #8C2204",
": c #8C2304",
"> c #BB2C02",
", c #BC2C02",
"< c #BD2C02",
"1 c #C32E02",
"2 c #D43101",
"3 c #F43700",
"4 c #F53800",
"5 c #F63800",
"6 c #F73800",
"7 c #F73900",
"8 c #F83800",
"9 c #F93800",
"0 c #FA3800",
"q c None",
/* pixels */
"qqqqq %;:&Xqqqqq",
"qqqq@*>55,*@qqqq",
"qqqq*499994*qqqq",
"qqqq*898898*qqqq",
"qqqo=898898=oqqq",
"qqq#,888888,#qqq",
"qqq#,999999,#qqq",
"qqqO=688886=Oqqq",
"qqq$>,****,>$qqq",
"qq#,5,****,5,#qq",
"qq*,<688886<,*qq",
"qq**=809908=**qq",
"qq@+*898898*+@qq",
"qqq.*899998*.qqq",
"qqqq*863368*qqqq",
"qqqq-qq1<27*qqqq"
};
