/* XPM */
static char *result[] = {
/* columns rows colors chars-per-pixel */
"16 16 53 1 ",
"  c #060707",
". c #070708",
"X c #070808",
"o c #070809",
"O c gray3",
"+ c #090808",
"@ c #0B0808",
"# c #431406",
"$ c #441406",
"% c #451406",
"& c #571805",
"* c #581805",
"= c #581806",
"- c #5E1905",
"; c #7F2004",
": c #7F2005",
"> c #443E30",
", c #453E30",
"< c #7F4A2E",
"1 c #802004",
"2 c #812004",
"3 c #802104",
"4 c #822105",
"5 c #8E2304",
"6 c #BC2C02",
"7 c #BD2C02",
"8 c #BC2C03",
"9 c #BE2D03",
"0 c #F83700",
"q c #F43800",
"w c #F53800",
"e c #F73800",
"r c #F63802",
"t c #F83800",
"y c #F93800",
"u c #FA3801",
"i c #F93903",
"p c #804A2E",
"a c #B1643E",
"s c #B4673F",
"d c #F2622A",
"f c #F5612A",
"g c #F5622B",
"h c #F8622B",
"j c #817458",
"k c #827458",
"l c #D17446",
"z c #B5A27B",
"x c #F68A53",
"c c #F98B54",
"v c #FA8F56",
"b c #D5BE8E",
"n c None",
/* pixels */
"nnnnn@-55-@nnnnn",
"nnnn&26ee62&nnnn",
"nnnn1qtyytq1nnnn",
"nnnn26211262nnnn",
"nnn+$$+OO+$$+nnn",
"nnn.O,,XX,,O.nnn",
"nnn ojkOOkjo nnn",
"nnn O,,XX,,O nnn",
"nnn*1%+OO+%1*nnn",
"nn*6w6;##;6w6*nn",
"nn1r97q11q79r1nn",
"nn3dp3e77e3pd3nn",
"nn=<>;0yy0;><=nn",
"nnnO$8iuui8$Onnn",
"nnnn;gxffch;nnnn",
"nnnn4lzasbv:nnnn"
};
