/* XPM */
static char *result[] = {
/* columns rows colors chars-per-pixel */
"16 16 83 1 ",
"  c #020305",
". c #050606",
"X c #060606",
"o c #090607",
"O c #040708",
"+ c gray3",
"@ c #090808",
"# c #1E0A06",
"$ c #1C0C07",
"% c #1D0C07",
"& c #1E0D07",
"* c #1F0D07",
"= c #191A16",
"- c #1E1B16",
"; c #2A0E07",
": c #2A0F07",
"> c #2B0F07",
", c #2C0C04",
"< c #2C0E05",
"1 c #321007",
"2 c #361106",
"3 c #381106",
"4 c #381206",
"5 c #3D1206",
"6 c #2F1F16",
"7 c #302D25",
"8 c #322E24",
"9 c #6A1B04",
"0 c #691C05",
"q c #6A1C05",
"w c #6B1C05",
"e c #6C1C05",
"r c #761E04",
"t c #7E1E03",
"y c #472315",
"u c #7E2004",
"i c #7F2004",
"p c #6F2B14",
"a c #59513E",
"s c #5B523F",
"d c #6C553D",
"f c #802004",
"g c #812004",
"h c #822004",
"j c #8B2102",
"k c #8B2203",
"l c #892204",
"z c #932403",
"x c #952403",
"c c #962403",
"v c #922404",
"b c #992503",
"n c #963312",
"m c #A62601",
"M c #BB2A01",
"N c #BB2C02",
"B c #BE2C02",
"V c #CB3002",
"C c #CE3001",
"Z c #CF3001",
"A c #CC3002",
"S c #CD3002",
"D c #CE3002",
"F c #D13001",
"G c #D23001",
"H c #D13F11",
"J c #E53401",
"K c #E63501",
"L c #E73501",
"P c #F53800",
"I c #F83800",
"U c #F93800",
"Y c #F83900",
"T c #FA3800",
"R c #FB3900",
"E c #F83A00",
"W c #FD3900",
"Q c #FE3900",
"! c #FE3A00",
"~ c #FF3A00",
"^ c #945D3C",
"/ c #AD9A75",
"( c None",
/* pixels */
"(((((((@o(((((((",
"(((((:rggr;(((((",
"((((%uKUUKi%((((",
"(((>lJRTURJl>(((",
"(((2ARIIUIWC2(((",
"(((*whuzJTWZ2(((",
"((((X-a6tLQC2(((",
"(((( 8/7,G~Z2(((",
"((((.-s=<F~S2(((",
"((((+++O1Bb0*(((",
"(((((*9hfhe$O(((",
"(((((2DKvcN3((((",
"(((((4Mn^Hj(((((",
"(((((5mydp#(((((",
"(((((kGxuhq&((((",
"(((((A!YPEV((((("
};
