/* XPM */
static char *result[] = {
/* columns rows colors chars-per-pixel */
"16 16 44 1 ",
"  c #22141F",
". c #24151F",
"X c #26151F",
"o c #28161F",
"O c #29171F",
"+ c #130F20",
"@ c #140F20",
"# c #261620",
"$ c #241722",
"% c #291720",
"& c #271924",
"* c #2F1B23",
"= c #2F1B24",
"- c #2E1D26",
"; c #341D23",
": c #301D25",
"> c #352027",
", c #3B2226",
"< c #3D2226",
"1 c #3A272B",
"2 c #3F262A",
"3 c #462526",
"4 c #462A2D",
"5 c #402C2E",
"6 c #4A2828",
"7 c #48292A",
"8 c #552F2B",
"9 c #5D352E",
"0 c #543633",
"q c #5D3531",
"w c #613C35",
"e c #2D4234",
"r c #304935",
"t c #394F33",
"y c #2D533A",
"u c #2A563C",
"i c #33603E",
"p c #46492F",
"a c #6D4238",
"s c #70453A",
"d c #784B3C",
"f c #61783E",
"g c #4F8C48",
"h c None",
/* pixels */
"hhhhhhhhhhhhhhhh",
"hhhhh@+hhhhhhhhh",
"hhhh%thhhhhhihhh",
"hhh:=hhhhhhyeihh",
"hhh>hhhhhhhhyhhh",
"hh-2hhhhhhhhhhhh",
"hh1whhhhhfhhhhhh",
"hh5dhhhhhhhhhhhh",
"hhhs,hhhhhhhhhhh",
"hhh09.hhhhhhhh+h",
"hhhha6 hhhhhht@h",
"hhhhhq8;hhhhXohh",
"hhgphh473<*O#hhh",
"hurghhhh&&$hhhhh",
"hhuhhhhhhhhhhhhh",
"hhhhhhhhhhhhhhhh"
};
